<svg width="208" height="52" viewBox="0 0 208 52" fill="none" xmlns="http://www.w3.org/2000/svg">
<path fill-rule="evenodd" clip-rule="evenodd" d="M8.98421 25.5741L1 19.5741L1.2223 18.8148C1.247 18.7531 1.2717 18.6605 1.2964 18.537C1.3211 18.4753 1.35197 18.3889 1.38902 18.2778C3.00068 13.2037 6.14991 8.83333 10.281 5.77778C14.3194 2.77778 19.284 1 24.6377 1C31.3993 1 37.5125 3.7963 41.9399 8.33333C46.3674 12.8519 49.0905 19.1111 49.0905 26C49.0905 32.8889 46.3674 39.1296 41.9399 43.6667C37.5125 48.1852 31.3993 51 24.6377 51C21.8219 51 19.0803 50.5185 16.5238 49.6296C13.9303 48.7037 11.5221 47.3704 9.41028 45.6481L8.98421 45.3148V25.5741ZM40.0133 42.3333C40.0998 42.2346 40.1924 42.142 40.2912 42.0556C44.3111 37.9444 46.7934 32.2593 46.7934 25.9815C46.7934 19.7222 44.3111 14.037 40.2912 9.92593C36.2898 5.83333 30.7509 3.2963 24.6377 3.2963C19.7842 3.2963 15.3012 4.88889 11.6518 7.61111C7.98387 10.3333 5.14957 14.2037 3.66758 18.7037L8.98421 22.7037V13.5926L24.4895 24.7963L40.0133 13.5926V42.3333ZM11.2813 27.2963V44.1852C13.0782 45.5741 15.1159 46.6667 17.2833 47.4259C19.5804 48.2407 22.0628 48.6667 24.6377 48.6667C26.4531 48.6667 28.213 48.4444 29.8988 48.037V32.7593L24.5266 37.2593L11.2813 27.2963ZM37.6977 44.3148V18.0926L24.4895 27.6481L11.2813 18.0926V24.4259L24.4525 34.3333L32.1959 27.8333V47.3148C34.178 46.5926 36.0305 45.5741 37.6977 44.3148Z" fill="#2F517C" stroke="#2F517C" stroke-width="1.1" stroke-miterlimit="22.9256"/>
<path d="M13.5969 14.6667C16.4312 11.7778 20.3399 10 24.6377 10C28.954 10 32.8627 11.7778 35.6785 14.6667C35.7279 14.716 35.7711 14.7593 35.8082 14.7963L37.6977 13.4444C37.5742 13.321 37.4507 13.1975 37.3272 13.0741C34.0854 9.74074 29.6024 7.68518 24.6377 7.68518C19.6916 7.68518 15.2086 9.74074 11.9482 13.0741C11.7876 13.2346 11.6271 13.4012 11.4665 13.5741L13.3561 14.9259C13.4302 14.8395 13.5104 14.7531 13.5969 14.6667Z" fill="#2F517C" stroke="#2F517C" stroke-width="1.1" stroke-miterlimit="22.9256"/>
<path d="M24.6377 42C20.3399 42 16.4312 40.2222 13.5969 37.3333C13.3128 37.0247 13.035 36.7099 12.7633 36.3889V39.7037C15.931 42.5741 20.0806 44.2963 24.6377 44.2963C25.9344 44.2963 27.1941 44.1667 28.4168 43.9074V41.537C27.2127 41.8333 25.953 42 24.6377 42Z" fill="#2F517C" stroke="#2F517C" stroke-width="1.1" stroke-miterlimit="22.9256"/>
<path d="M33.6778 39.0556V41.8148C34.5856 41.2778 35.4377 40.6667 36.2157 39.9815V36.7593C36.0428 36.9444 35.8638 37.1358 35.6785 37.3333C35.061 37.963 34.3941 38.537 33.6778 39.0556Z" fill="#2F517C" stroke="#2F517C" stroke-width="1.1" stroke-miterlimit="22.9256"/>
<path d="M4.92728 35.963L2.83397 36.9444C4.11218 39.7222 5.85352 42.2222 7.98388 44.3519C8.30498 44.6728 8.63842 44.9877 8.98422 45.2963V44.7593V42.0741C7.31698 40.2778 5.94614 38.2222 4.92728 35.963Z" fill="#2F517C" stroke="#2F517C" stroke-width="1.1" stroke-miterlimit="22.9256"/>
<path d="M198.681 31.3775V29.2759L204.333 22.6957L204.753 23.8842H198.825V21.2319H207.768V23.3335L202.116 29.9137L201.695 28.7252H208V31.3775H198.681Z" fill="#2F517C"/>
<path d="M192.533 31.6094C190.977 31.6094 189.764 31.1891 188.895 30.3485C188.025 29.5078 187.59 28.329 187.59 26.812V21.2319H191.011V26.7105C191.011 27.4835 191.151 28.0343 191.431 28.3628C191.711 28.6817 192.088 28.8411 192.562 28.8411C193.045 28.8411 193.421 28.6817 193.692 28.3628C193.972 28.0343 194.112 27.4835 194.112 26.7105V21.2319H197.475V26.812C197.475 28.329 197.04 29.5078 196.17 30.3485C195.301 31.1891 194.088 31.6094 192.533 31.6094Z" fill="#2F517C"/>
<path d="M184.723 31.5224C184.182 31.5224 183.728 31.3485 183.36 31.0006C182.993 30.6431 182.81 30.189 182.81 29.6382C182.81 29.0778 182.993 28.6285 183.36 28.2903C183.728 27.9521 184.182 27.783 184.723 27.783C185.264 27.783 185.718 27.9521 186.085 28.2903C186.452 28.6285 186.636 29.0778 186.636 29.6382C186.636 30.189 186.452 30.6431 186.085 31.0006C185.718 31.3485 185.264 31.5224 184.723 31.5224Z" fill="#2F517C"/>
<path d="M176.245 31.3775V26.9279L177.028 28.9716L172.419 21.2319H176.028L179.144 26.5221H177.042L180.187 21.2319H183.492L178.912 28.9716L179.666 26.9279V31.3775H176.245Z" fill="#2F517C"/>
<path d="M167.123 31.6095C166.292 31.6095 165.524 31.479 164.818 31.2181C164.123 30.9572 163.519 30.5901 163.007 30.1166C162.495 29.6335 162.094 29.0682 161.804 28.4208C161.524 27.7734 161.383 27.0681 161.383 26.3047C161.383 25.5317 161.524 24.8264 161.804 24.1886C162.094 23.5412 162.495 22.9808 163.007 22.5074C163.519 22.0242 164.123 21.6522 164.818 21.3913C165.524 21.1304 166.287 21 167.108 21C167.939 21 168.703 21.1304 169.398 21.3913C170.094 21.6522 170.698 22.0242 171.21 22.5074C171.722 22.9808 172.118 23.5412 172.399 24.1886C172.689 24.8264 172.834 25.5317 172.834 26.3047C172.834 27.0681 172.689 27.7734 172.399 28.4208C172.118 29.0682 171.722 29.6335 171.21 30.1166C170.698 30.5901 170.094 30.9572 169.398 31.2181C168.703 31.479 167.944 31.6095 167.123 31.6095ZM167.108 28.8411C167.427 28.8411 167.722 28.7832 167.993 28.6672C168.273 28.5513 168.514 28.387 168.717 28.1744C168.93 27.9522 169.094 27.6865 169.21 27.3773C169.326 27.0584 169.384 26.7009 169.384 26.3047C169.384 25.9086 169.326 25.5559 169.21 25.2467C169.094 24.9278 168.93 24.6621 168.717 24.4495C168.514 24.2273 168.273 24.0582 167.993 23.9422C167.722 23.8263 167.427 23.7683 167.108 23.7683C166.79 23.7683 166.49 23.8263 166.21 23.9422C165.939 24.0582 165.698 24.2273 165.485 24.4495C165.282 24.6621 165.123 24.9278 165.007 25.2467C164.891 25.5559 164.833 25.9086 164.833 26.3047C164.833 26.7009 164.891 27.0584 165.007 27.3773C165.123 27.6865 165.282 27.9522 165.485 28.1744C165.698 28.387 165.939 28.5513 166.21 28.6672C166.49 28.7832 166.79 28.8411 167.108 28.8411Z" fill="#2F517C"/>
<path d="M150.99 31.3775V21.2319H155.874C156.821 21.2319 157.638 21.3865 158.324 21.6957C159.019 22.0049 159.556 22.4494 159.932 23.0291C160.309 23.5992 160.498 24.2756 160.498 25.0582C160.498 25.8409 160.309 26.5173 159.932 27.0874C159.556 27.6478 159.019 28.0778 158.324 28.3773C157.638 28.6769 156.821 28.8266 155.874 28.8266H152.888L154.41 27.4207V31.3775H150.99ZM157.063 31.3775L154.57 27.6816H158.193L160.715 31.3775H157.063ZM154.41 27.7976L152.888 26.2467H155.657C156.13 26.2467 156.478 26.1404 156.7 25.9279C156.932 25.7153 157.048 25.4254 157.048 25.0582C157.048 24.6911 156.932 24.4012 156.7 24.1886C156.478 23.976 156.13 23.8697 155.657 23.8697H152.888L154.41 22.3189V27.7976Z" fill="#2F517C"/>
<path d="M143.71 31.3775V23.8842H140.738V21.2319H150.101V23.8842H147.13V31.3775H143.71Z" fill="#2F517C"/>
<path d="M135.905 31.6095C135.055 31.6095 134.234 31.5128 133.441 31.3196C132.649 31.1263 131.997 30.8751 131.485 30.5659L132.586 28.073C133.069 28.3532 133.606 28.5803 134.195 28.7542C134.794 28.9184 135.374 29.0006 135.934 29.0006C136.263 29.0006 136.519 28.9812 136.702 28.9426C136.896 28.8943 137.036 28.8315 137.123 28.7542C137.21 28.6672 137.253 28.5658 137.253 28.4498C137.253 28.2662 137.152 28.1213 136.949 28.015C136.746 27.9087 136.475 27.8217 136.137 27.7541C135.809 27.6768 135.446 27.5995 135.05 27.5222C134.654 27.4352 134.253 27.3241 133.847 27.1888C133.451 27.0536 133.084 26.8748 132.746 26.6526C132.417 26.4303 132.151 26.1405 131.948 25.783C131.746 25.4158 131.644 24.9616 131.644 24.4205C131.644 23.7925 131.818 23.2224 132.166 22.7103C132.523 22.1885 133.05 21.773 133.746 21.4638C134.451 21.1546 135.325 21 136.369 21C137.055 21 137.731 21.0725 138.398 21.2174C139.065 21.3623 139.664 21.5846 140.195 21.8841L139.166 24.3626C138.664 24.1113 138.176 23.9229 137.702 23.7973C137.239 23.6717 136.785 23.6089 136.34 23.6089C136.012 23.6089 135.751 23.6379 135.557 23.6958C135.364 23.7538 135.224 23.8311 135.137 23.9277C135.06 24.0244 135.021 24.1307 135.021 24.2466C135.021 24.4205 135.123 24.5606 135.325 24.6669C135.528 24.7636 135.794 24.8457 136.123 24.9133C136.461 24.981 136.828 25.0534 137.224 25.1307C137.63 25.208 138.031 25.3143 138.427 25.4496C138.823 25.5849 139.186 25.7636 139.514 25.9859C139.852 26.2081 140.123 26.498 140.326 26.8555C140.529 27.213 140.63 27.6575 140.63 28.1889C140.63 28.8073 140.451 29.3774 140.094 29.8992C139.746 30.4113 139.224 30.8268 138.529 31.1457C137.833 31.4549 136.958 31.6095 135.905 31.6095Z" fill="#2F517C"/>
<path d="M123.177 31.3775V21.2319H126.597V28.7252H131.178V31.3775H123.177Z" fill="#2F517C"/>
<path d="M114.232 31.3775V21.2319H117.652V28.7252H122.232V31.3775H114.232Z" fill="#2F517C"/>
<path d="M101.453 31.3775L105.888 21.2319H109.251L113.686 31.3775H110.149L106.874 22.8552H108.207L104.931 31.3775H101.453ZM104.091 29.6093L104.96 27.1453H109.627L110.497 29.6093H104.091Z" fill="#2F517C"/>
<path d="M95.7838 31.3775V23.8842H92.8125V21.2319H102.176V23.8842H99.2043V31.3775H95.7838Z" fill="#2F517C"/>
<path d="M86.9592 25.0003H91.4813V27.4642H86.9592V25.0003ZM87.1911 28.7976H92.2639V31.3775H83.8286V21.2319H92.0755V23.8118H87.1911V28.7976Z" fill="#2F517C"/>
<path d="M70 31.3775V21.2319H72.8118L76.8701 27.8555H75.3917L79.334 21.2319H82.1458L82.1748 31.3775H79.0586L79.0296 25.9279H79.5224L76.8266 30.4644H75.3192L72.5074 25.9279H73.1162V31.3775H70Z" fill="#2F517C"/>
</svg>
